<svg xmlns="http://www.w3.org/2000/svg" width="191mm" height="165mm" viewBox="0 0 191 165"><rect width="191" height="165" fill="#fff"/><g transform="translate(8 20)" fill="#000"><rect x="0" y="0" width="25" height="25"/><rect x="28.5" y="3.5" width="2.25" height="2.25"/><rect x="30.75" y="3.5" width="2.25" height="2.25"/><rect x="33" y="3.5" width="2.25" height="2.25"/><rect x="35.25" y="3.5" width="2.25" height="2.25"/><rect x="37.5" y="3.5" width="2.25" height="2.25"/><rect x="39.75" y="3.5" width="2.25" height="2.25"/><rect x="42" y="3.5" width="2.25" height="2.25"/><rect x="44.25" y="3.5" width="2.25" height="2.25"/><rect x="28.5" y="5.75" width="2.25" height="2.25"/><rect x="30.75" y="5.75" width="2.25" height="2.25"/><rect x="33" y="5.75" width="2.25" height="2.25"/><rect x="35.25" y="5.75" width="2.25" height="2.25"/><rect x="44.25" y="5.75" width="2.25" height="2.25"/><rect x="28.5" y="8" width="2.25" height="2.25"/><rect x="33" y="8" width="2.25" height="2.25"/><rect x="35.25" y="8" width="2.25" height="2.25"/><rect x="37.5" y="8" width="2.25" height="2.25"/><rect x="44.25" y="8" width="2.25" height="2.25"/><rect x="28.5" y="10.25" width="2.25" height="2.25"/><rect x="35.25" y="10.25" width="2.25" height="2.25"/><rect x="44.25" y="10.25" width="2.25" height="2.25"/><rect x="28.5" y="12.5" width="2.25" height="2.25"/><rect x="30.75" y="12.5" width="2.25" height="2.25"/><rect x="37.5" y="12.5" width="2.25" height="2.25"/><rect x="39.75" y="12.5" width="2.25" height="2.25"/><rect x="42" y="12.5" width="2.25" height="2.25"/><rect x="44.25" y="12.5" width="2.25" height="2.25"/><rect x="28.5" y="14.75" width="2.25" height="2.25"/><rect x="30.75" y="14.75" width="2.25" height="2.25"/><rect x="33" y="14.75" width="2.25" height="2.25"/><rect x="37.5" y="14.75" width="2.25" height="2.25"/><rect x="42" y="14.75" width="2.25" height="2.25"/><rect x="44.25" y="14.75" width="2.25" height="2.25"/><rect x="28.5" y="17" width="2.25" height="2.25"/><rect x="33" y="17" width="2.25" height="2.25"/><rect x="35.25" y="17" width="2.25" height="2.25"/><rect x="42" y="17" width="2.25" height="2.25"/><rect x="44.25" y="17" width="2.25" height="2.25"/><rect x="28.5" y="19.25" width="2.25" height="2.25"/><rect x="30.75" y="19.25" width="2.25" height="2.25"/><rect x="33" y="19.25" width="2.25" height="2.25"/><rect x="35.25" y="19.25" width="2.25" height="2.25"/><rect x="37.5" y="19.25" width="2.25" height="2.25"/><rect x="39.75" y="19.25" width="2.25" height="2.25"/><rect x="42" y="19.25" width="2.25" height="2.25"/><rect x="44.25" y="19.25" width="2.25" height="2.25"/><rect x="50" y="0" width="25" height="25"/><rect x="78.5" y="3.5" width="2.25" height="2.25"/><rect x="80.75" y="3.5" width="2.25" height="2.25"/><rect x="83" y="3.5" width="2.25" height="2.25"/><rect x="85.25" y="3.5" width="2.25" height="2.25"/><rect x="87.5" y="3.5" width="2.25" height="2.25"/><rect x="89.75" y="3.5" width="2.25" height="2.25"/><rect x="92" y="3.5" width="2.25" height="2.25"/><rect x="94.25" y="3.5" width="2.25" height="2.25"/><rect x="78.5" y="5.75" width="2.25" height="2.25"/><rect x="80.75" y="5.75" width="2.25" height="2.25"/><rect x="83" y="5.75" width="2.25" height="2.25"/><rect x="85.25" y="5.75" width="2.25" height="2.25"/><rect x="87.5" y="5.75" width="2.25" height="2.25"/><rect x="94.25" y="5.75" width="2.25" height="2.25"/><rect x="78.5" y="8" width="2.25" height="2.25"/><rect x="83" y="8" width="2.25" height="2.25"/><rect x="94.25" y="8" width="2.25" height="2.25"/><rect x="78.5" y="10.25" width="2.25" height="2.25"/><rect x="83" y="10.25" width="2.25" height="2.25"/><rect x="92" y="10.25" width="2.25" height="2.25"/><rect x="94.25" y="10.25" width="2.25" height="2.25"/><rect x="78.5" y="12.5" width="2.25" height="2.25"/><rect x="83" y="12.5" width="2.25" height="2.25"/><rect x="85.25" y="12.5" width="2.25" height="2.25"/><rect x="87.5" y="12.5" width="2.25" height="2.25"/><rect x="94.25" y="12.5" width="2.25" height="2.25"/><rect x="78.5" y="14.75" width="2.25" height="2.25"/><rect x="83" y="14.75" width="2.25" height="2.25"/><rect x="85.25" y="14.75" width="2.25" height="2.25"/><rect x="87.5" y="14.75" width="2.25" height="2.25"/><rect x="92" y="14.75" width="2.25" height="2.25"/><rect x="94.25" y="14.75" width="2.25" height="2.25"/><rect x="78.5" y="17" width="2.25" height="2.25"/><rect x="80.75" y="17" width="2.25" height="2.25"/><rect x="85.25" y="17" width="2.25" height="2.25"/><rect x="87.5" y="17" width="2.25" height="2.25"/><rect x="89.75" y="17" width="2.25" height="2.25"/><rect x="94.25" y="17" width="2.25" height="2.25"/><rect x="78.5" y="19.25" width="2.25" height="2.25"/><rect x="80.75" y="19.25" width="2.25" height="2.25"/><rect x="83" y="19.25" width="2.25" height="2.25"/><rect x="85.25" y="19.25" width="2.25" height="2.25"/><rect x="87.5" y="19.25" width="2.25" height="2.25"/><rect x="89.75" y="19.25" width="2.25" height="2.25"/><rect x="92" y="19.25" width="2.25" height="2.25"/><rect x="94.25" y="19.25" width="2.25" height="2.25"/><rect x="100" y="0" width="25" height="25"/><rect x="128.5" y="3.5" width="2.25" height="2.25"/><rect x="130.75" y="3.5" width="2.25" height="2.25"/><rect x="133" y="3.5" width="2.25" height="2.25"/><rect x="135.25" y="3.5" width="2.25" height="2.25"/><rect x="137.5" y="3.5" width="2.25" height="2.25"/><rect x="139.75" y="3.5" width="2.25" height="2.25"/><rect x="142" y="3.5" width="2.25" height="2.25"/><rect x="144.25" y="3.5" width="2.25" height="2.25"/><rect x="128.5" y="5.75" width="2.25" height="2.25"/><rect x="130.75" y="5.75" width="2.25" height="2.25"/><rect x="133" y="5.75" width="2.25" height="2.25"/><rect x="135.25" y="5.75" width="2.25" height="2.25"/><rect x="139.75" y="5.75" width="2.25" height="2.25"/><rect x="144.25" y="5.75" width="2.25" height="2.25"/><rect x="128.5" y="8" width="2.25" height="2.25"/><rect x="130.75" y="8" width="2.25" height="2.25"/><rect x="137.5" y="8" width="2.25" height="2.25"/><rect x="139.75" y="8" width="2.25" height="2.25"/><rect x="144.25" y="8" width="2.25" height="2.25"/><rect x="128.5" y="10.25" width="2.25" height="2.25"/><rect x="130.75" y="10.25" width="2.25" height="2.25"/><rect x="133" y="10.25" width="2.25" height="2.25"/><rect x="135.25" y="10.25" width="2.25" height="2.25"/><rect x="137.5" y="10.25" width="2.25" height="2.25"/><rect x="139.75" y="10.25" width="2.25" height="2.25"/><rect x="144.25" y="10.25" width="2.25" height="2.25"/><rect x="128.5" y="12.5" width="2.25" height="2.25"/><rect x="142" y="12.5" width="2.25" height="2.25"/><rect x="144.25" y="12.5" width="2.25" height="2.25"/><rect x="128.5" y="14.75" width="2.25" height="2.25"/><rect x="133" y="14.75" width="2.25" height="2.25"/><rect x="137.5" y="14.75" width="2.25" height="2.25"/><rect x="144.25" y="14.75" width="2.25" height="2.25"/><rect x="128.5" y="17" width="2.25" height="2.25"/><rect x="130.75" y="17" width="2.25" height="2.25"/><rect x="133" y="17" width="2.25" height="2.25"/><rect x="139.75" y="17" width="2.25" height="2.25"/><rect x="144.25" y="17" width="2.25" height="2.25"/><rect x="128.5" y="19.25" width="2.25" height="2.25"/><rect x="130.75" y="19.25" width="2.25" height="2.25"/><rect x="133" y="19.25" width="2.25" height="2.25"/><rect x="135.25" y="19.25" width="2.25" height="2.25"/><rect x="137.5" y="19.25" width="2.25" height="2.25"/><rect x="139.75" y="19.25" width="2.25" height="2.25"/><rect x="142" y="19.25" width="2.25" height="2.25"/><rect x="144.25" y="19.25" width="2.25" height="2.25"/><rect x="150" y="0" width="25" height="25"/><rect x="3.5" y="28.5" width="2.25" height="2.25"/><rect x="5.75" y="28.5" width="2.25" height="2.25"/><rect x="8" y="28.5" width="2.25" height="2.25"/><rect x="10.25" y="28.5" width="2.25" height="2.25"/><rect x="12.5" y="28.5" width="2.25" height="2.25"/><rect x="14.75" y="28.5" width="2.25" height="2.25"/><rect x="17" y="28.5" width="2.25" height="2.25"/><rect x="19.25" y="28.5" width="2.25" height="2.25"/><rect x="3.5" y="30.75" width="2.25" height="2.25"/><rect x="10.25" y="30.75" width="2.25" height="2.25"/><rect x="12.5" y="30.75" width="2.25" height="2.25"/><rect x="17" y="30.75" width="2.25" height="2.25"/><rect x="19.25" y="30.75" width="2.25" height="2.25"/><rect x="3.5" y="33" width="2.25" height="2.25"/><rect x="5.75" y="33" width="2.25" height="2.25"/><rect x="10.25" y="33" width="2.25" height="2.25"/><rect x="12.5" y="33" width="2.25" height="2.25"/><rect x="14.75" y="33" width="2.25" height="2.25"/><rect x="19.25" y="33" width="2.25" height="2.25"/><rect x="3.5" y="35.25" width="2.25" height="2.25"/><rect x="8" y="35.25" width="2.25" height="2.25"/><rect x="14.75" y="35.25" width="2.25" height="2.25"/><rect x="17" y="35.25" width="2.25" height="2.25"/><rect x="19.25" y="35.25" width="2.25" height="2.25"/><rect x="3.5" y="37.5" width="2.25" height="2.25"/><rect x="10.25" y="37.5" width="2.25" height="2.25"/><rect x="12.5" y="37.5" width="2.25" height="2.25"/><rect x="14.75" y="37.5" width="2.25" height="2.25"/><rect x="17" y="37.5" width="2.25" height="2.25"/><rect x="19.25" y="37.5" width="2.25" height="2.25"/><rect x="3.5" y="39.75" width="2.25" height="2.25"/><rect x="5.75" y="39.75" width="2.25" height="2.25"/><rect x="12.5" y="39.75" width="2.25" height="2.25"/><rect x="17" y="39.75" width="2.25" height="2.25"/><rect x="19.25" y="39.75" width="2.25" height="2.25"/><rect x="3.5" y="42" width="2.25" height="2.25"/><rect x="5.75" y="42" width="2.25" height="2.25"/><rect x="17" y="42" width="2.25" height="2.25"/><rect x="19.25" y="42" width="2.25" height="2.25"/><rect x="3.5" y="44.25" width="2.25" height="2.25"/><rect x="5.75" y="44.25" width="2.25" height="2.25"/><rect x="8" y="44.25" width="2.25" height="2.25"/><rect x="10.25" y="44.25" width="2.25" height="2.25"/><rect x="12.5" y="44.25" width="2.25" height="2.25"/><rect x="14.75" y="44.25" width="2.25" height="2.25"/><rect x="17" y="44.25" width="2.25" height="2.25"/><rect x="19.25" y="44.25" width="2.25" height="2.25"/><rect x="25" y="25" width="25" height="25"/><rect x="53.5" y="28.5" width="2.25" height="2.25"/><rect x="55.75" y="28.5" width="2.25" height="2.25"/><rect x="58" y="28.5" width="2.25" height="2.25"/><rect x="60.25" y="28.5" width="2.25" height="2.25"/><rect x="62.5" y="28.5" width="2.25" height="2.25"/><rect x="64.75" y="28.5" width="2.25" height="2.25"/><rect x="67" y="28.5" width="2.25" height="2.25"/><rect x="69.25" y="28.5" width="2.25" height="2.25"/><rect x="53.5" y="30.75" width="2.25" height="2.25"/><rect x="60.25" y="30.75" width="2.25" height="2.25"/><rect x="64.75" y="30.75" width="2.25" height="2.25"/><rect x="69.25" y="30.75" width="2.25" height="2.25"/><rect x="53.5" y="33" width="2.25" height="2.25"/><rect x="58" y="33" width="2.25" height="2.25"/><rect x="60.25" y="33" width="2.25" height="2.25"/><rect x="62.5" y="33" width="2.25" height="2.25"/><rect x="64.75" y="33" width="2.25" height="2.25"/><rect x="67" y="33" width="2.25" height="2.25"/><rect x="69.25" y="33" width="2.25" height="2.25"/><rect x="53.5" y="35.25" width="2.25" height="2.25"/><rect x="55.75" y="35.25" width="2.25" height="2.25"/><rect x="69.25" y="35.25" width="2.25" height="2.25"/><rect x="53.5" y="37.5" width="2.25" height="2.25"/><rect x="55.75" y="37.5" width="2.25" height="2.25"/><rect x="60.25" y="37.5" width="2.25" height="2.25"/><rect x="67" y="37.5" width="2.25" height="2.25"/><rect x="69.25" y="37.5" width="2.25" height="2.25"/><rect x="53.5" y="39.75" width="2.25" height="2.25"/><rect x="62.5" y="39.75" width="2.25" height="2.25"/><rect x="64.75" y="39.75" width="2.25" height="2.25"/><rect x="67" y="39.75" width="2.25" height="2.25"/><rect x="69.25" y="39.75" width="2.25" height="2.25"/><rect x="53.5" y="42" width="2.25" height="2.25"/><rect x="55.75" y="42" width="2.25" height="2.25"/><rect x="60.25" y="42" width="2.25" height="2.25"/><rect x="64.75" y="42" width="2.25" height="2.25"/><rect x="69.25" y="42" width="2.25" height="2.25"/><rect x="53.5" y="44.25" width="2.25" height="2.25"/><rect x="55.75" y="44.25" width="2.25" height="2.25"/><rect x="58" y="44.25" width="2.25" height="2.25"/><rect x="60.25" y="44.25" width="2.25" height="2.25"/><rect x="62.5" y="44.25" width="2.25" height="2.25"/><rect x="64.75" y="44.25" width="2.25" height="2.25"/><rect x="67" y="44.25" width="2.25" height="2.25"/><rect x="69.25" y="44.25" width="2.25" height="2.25"/><rect x="75" y="25" width="25" height="25"/><rect x="103.5" y="28.5" width="2.25" height="2.25"/><rect x="105.75" y="28.5" width="2.25" height="2.25"/><rect x="108" y="28.5" width="2.25" height="2.25"/><rect x="110.25" y="28.5" width="2.25" height="2.25"/><rect x="112.5" y="28.5" width="2.25" height="2.25"/><rect x="114.75" y="28.5" width="2.25" height="2.25"/><rect x="117" y="28.5" width="2.25" height="2.25"/><rect x="119.25" y="28.5" width="2.25" height="2.25"/><rect x="103.5" y="30.75" width="2.25" height="2.25"/><rect x="110.25" y="30.75" width="2.25" height="2.25"/><rect x="117" y="30.75" width="2.25" height="2.25"/><rect x="119.25" y="30.75" width="2.25" height="2.25"/><rect x="103.5" y="33" width="2.25" height="2.25"/><rect x="105.75" y="33" width="2.25" height="2.25"/><rect x="108" y="33" width="2.25" height="2.25"/><rect x="117" y="33" width="2.25" height="2.25"/><rect x="119.25" y="33" width="2.25" height="2.25"/><rect x="103.5" y="35.25" width="2.25" height="2.25"/><rect x="108" y="35.25" width="2.25" height="2.25"/><rect x="110.25" y="35.25" width="2.25" height="2.25"/><rect x="112.5" y="35.25" width="2.25" height="2.25"/><rect x="119.25" y="35.25" width="2.25" height="2.25"/><rect x="103.5" y="37.5" width="2.25" height="2.25"/><rect x="108" y="37.5" width="2.25" height="2.25"/><rect x="110.25" y="37.5" width="2.25" height="2.25"/><rect x="112.5" y="37.5" width="2.25" height="2.25"/><rect x="114.75" y="37.5" width="2.25" height="2.25"/><rect x="117" y="37.5" width="2.25" height="2.25"/><rect x="119.25" y="37.5" width="2.25" height="2.25"/><rect x="103.5" y="39.75" width="2.25" height="2.25"/><rect x="112.5" y="39.75" width="2.25" height="2.25"/><rect x="114.75" y="39.75" width="2.25" height="2.25"/><rect x="119.25" y="39.75" width="2.25" height="2.25"/><rect x="103.5" y="42" width="2.25" height="2.25"/><rect x="108" y="42" width="2.25" height="2.25"/><rect x="112.5" y="42" width="2.25" height="2.25"/><rect x="114.75" y="42" width="2.25" height="2.25"/><rect x="117" y="42" width="2.25" height="2.25"/><rect x="119.25" y="42" width="2.25" height="2.25"/><rect x="103.5" y="44.25" width="2.25" height="2.25"/><rect x="105.75" y="44.25" width="2.25" height="2.25"/><rect x="108" y="44.25" width="2.25" height="2.25"/><rect x="110.25" y="44.25" width="2.25" height="2.25"/><rect x="112.5" y="44.25" width="2.25" height="2.25"/><rect x="114.75" y="44.25" width="2.25" height="2.25"/><rect x="117" y="44.25" width="2.25" height="2.25"/><rect x="119.25" y="44.25" width="2.25" height="2.25"/><rect x="125" y="25" width="25" height="25"/><rect x="153.5" y="28.5" width="2.25" height="2.25"/><rect x="155.75" y="28.5" width="2.25" height="2.25"/><rect x="158" y="28.5" width="2.25" height="2.25"/><rect x="160.25" y="28.5" width="2.25" height="2.25"/><rect x="162.5" y="28.5" width="2.25" height="2.25"/><rect x="164.75" y="28.5" width="2.25" height="2.25"/><rect x="167" y="28.5" width="2.25" height="2.25"/><rect x="169.25" y="28.5" width="2.25" height="2.25"/><rect x="153.5" y="30.75" width="2.25" height="2.25"/><rect x="155.75" y="30.75" width="2.25" height="2.25"/><rect x="160.25" y="30.75" width="2.25" height="2.25"/><rect x="162.5" y="30.75" width="2.25" height="2.25"/><rect x="164.75" y="30.75" width="2.25" height="2.25"/><rect x="167" y="30.75" width="2.25" height="2.25"/><rect x="169.25" y="30.75" width="2.25" height="2.25"/><rect x="153.5" y="33" width="2.25" height="2.25"/><rect x="158" y="33" width="2.25" height="2.25"/><rect x="160.25" y="33" width="2.25" height="2.25"/><rect x="167" y="33" width="2.25" height="2.25"/><rect x="169.25" y="33" width="2.25" height="2.25"/><rect x="153.5" y="35.25" width="2.25" height="2.25"/><rect x="158" y="35.25" width="2.25" height="2.25"/><rect x="160.25" y="35.25" width="2.25" height="2.25"/><rect x="162.5" y="35.25" width="2.25" height="2.25"/><rect x="167" y="35.25" width="2.25" height="2.25"/><rect x="169.25" y="35.25" width="2.25" height="2.25"/><rect x="153.5" y="37.5" width="2.25" height="2.25"/><rect x="160.25" y="37.5" width="2.25" height="2.25"/><rect x="164.75" y="37.5" width="2.25" height="2.25"/><rect x="167" y="37.5" width="2.25" height="2.25"/><rect x="169.25" y="37.5" width="2.25" height="2.25"/><rect x="153.5" y="39.75" width="2.25" height="2.25"/><rect x="155.75" y="39.75" width="2.25" height="2.25"/><rect x="158" y="39.75" width="2.25" height="2.25"/><rect x="160.25" y="39.75" width="2.25" height="2.25"/><rect x="169.25" y="39.75" width="2.25" height="2.25"/><rect x="153.5" y="42" width="2.25" height="2.25"/><rect x="160.25" y="42" width="2.25" height="2.25"/><rect x="164.75" y="42" width="2.25" height="2.25"/><rect x="169.25" y="42" width="2.25" height="2.25"/><rect x="153.5" y="44.25" width="2.25" height="2.25"/><rect x="155.75" y="44.25" width="2.25" height="2.25"/><rect x="158" y="44.25" width="2.25" height="2.25"/><rect x="160.25" y="44.25" width="2.25" height="2.25"/><rect x="162.5" y="44.25" width="2.25" height="2.25"/><rect x="164.75" y="44.25" width="2.25" height="2.25"/><rect x="167" y="44.25" width="2.25" height="2.25"/><rect x="169.25" y="44.25" width="2.25" height="2.25"/><rect x="0" y="50" width="25" height="25"/><rect x="28.5" y="53.5" width="2.25" height="2.25"/><rect x="30.75" y="53.5" width="2.25" height="2.25"/><rect x="33" y="53.5" width="2.25" height="2.25"/><rect x="35.25" y="53.5" width="2.25" height="2.25"/><rect x="37.5" y="53.5" width="2.25" height="2.25"/><rect x="39.75" y="53.5" width="2.25" height="2.25"/><rect x="42" y="53.5" width="2.25" height="2.25"/><rect x="44.25" y="53.5" width="2.25" height="2.25"/><rect x="28.5" y="55.75" width="2.25" height="2.25"/><rect x="33" y="55.75" width="2.25" height="2.25"/><rect x="35.25" y="55.75" width="2.25" height="2.25"/><rect x="37.5" y="55.75" width="2.25" height="2.25"/><rect x="42" y="55.75" width="2.25" height="2.25"/><rect x="44.25" y="55.75" width="2.25" height="2.25"/><rect x="28.5" y="58" width="2.25" height="2.25"/><rect x="30.75" y="58" width="2.25" height="2.25"/><rect x="33" y="58" width="2.25" height="2.25"/><rect x="37.5" y="58" width="2.25" height="2.25"/><rect x="42" y="58" width="2.25" height="2.25"/><rect x="44.25" y="58" width="2.25" height="2.25"/><rect x="28.5" y="60.25" width="2.25" height="2.25"/><rect x="30.75" y="60.25" width="2.25" height="2.25"/><rect x="35.25" y="60.25" width="2.25" height="2.25"/><rect x="39.75" y="60.25" width="2.25" height="2.25"/><rect x="42" y="60.25" width="2.25" height="2.25"/><rect x="44.25" y="60.25" width="2.25" height="2.25"/><rect x="28.5" y="62.5" width="2.25" height="2.25"/><rect x="30.75" y="62.5" width="2.25" height="2.25"/><rect x="33" y="62.5" width="2.25" height="2.25"/><rect x="44.25" y="62.5" width="2.25" height="2.25"/><rect x="28.5" y="64.75" width="2.25" height="2.25"/><rect x="30.75" y="64.75" width="2.25" height="2.25"/><rect x="33" y="64.75" width="2.25" height="2.25"/><rect x="37.5" y="64.75" width="2.25" height="2.25"/><rect x="42" y="64.75" width="2.25" height="2.25"/><rect x="44.25" y="64.75" width="2.25" height="2.25"/><rect x="28.5" y="67" width="2.25" height="2.25"/><rect x="30.75" y="67" width="2.25" height="2.25"/><rect x="37.5" y="67" width="2.25" height="2.25"/><rect x="42" y="67" width="2.25" height="2.25"/><rect x="44.25" y="67" width="2.25" height="2.25"/><rect x="28.5" y="69.25" width="2.25" height="2.25"/><rect x="30.75" y="69.25" width="2.25" height="2.25"/><rect x="33" y="69.25" width="2.25" height="2.25"/><rect x="35.25" y="69.25" width="2.25" height="2.25"/><rect x="37.5" y="69.25" width="2.25" height="2.25"/><rect x="39.75" y="69.25" width="2.25" height="2.25"/><rect x="42" y="69.25" width="2.25" height="2.25"/><rect x="44.25" y="69.25" width="2.25" height="2.25"/><rect x="50" y="50" width="25" height="25"/><rect x="78.5" y="53.5" width="2.25" height="2.25"/><rect x="80.75" y="53.5" width="2.25" height="2.25"/><rect x="83" y="53.5" width="2.25" height="2.25"/><rect x="85.25" y="53.5" width="2.25" height="2.25"/><rect x="87.5" y="53.5" width="2.25" height="2.25"/><rect x="89.75" y="53.5" width="2.25" height="2.25"/><rect x="92" y="53.5" width="2.25" height="2.25"/><rect x="94.25" y="53.5" width="2.25" height="2.25"/><rect x="78.5" y="55.75" width="2.25" height="2.25"/><rect x="80.75" y="55.75" width="2.25" height="2.25"/><rect x="83" y="55.75" width="2.25" height="2.25"/><rect x="89.75" y="55.75" width="2.25" height="2.25"/><rect x="92" y="55.75" width="2.25" height="2.25"/><rect x="94.25" y="55.75" width="2.25" height="2.25"/><rect x="78.5" y="58" width="2.25" height="2.25"/><rect x="80.75" y="58" width="2.25" height="2.25"/><rect x="83" y="58" width="2.25" height="2.25"/><rect x="85.25" y="58" width="2.25" height="2.25"/><rect x="94.25" y="58" width="2.25" height="2.25"/><rect x="78.5" y="60.25" width="2.25" height="2.25"/><rect x="85.25" y="60.25" width="2.25" height="2.25"/><rect x="89.75" y="60.25" width="2.25" height="2.25"/><rect x="94.25" y="60.25" width="2.25" height="2.25"/><rect x="78.5" y="62.5" width="2.25" height="2.25"/><rect x="80.75" y="62.5" width="2.25" height="2.25"/><rect x="85.25" y="62.5" width="2.25" height="2.25"/><rect x="87.5" y="62.5" width="2.25" height="2.25"/><rect x="92" y="62.5" width="2.25" height="2.25"/><rect x="94.25" y="62.5" width="2.25" height="2.25"/><rect x="78.5" y="64.75" width="2.25" height="2.25"/><rect x="80.75" y="64.75" width="2.25" height="2.25"/><rect x="85.25" y="64.75" width="2.25" height="2.25"/><rect x="87.5" y="64.75" width="2.25" height="2.25"/><rect x="94.25" y="64.75" width="2.25" height="2.25"/><rect x="78.5" y="67" width="2.25" height="2.25"/><rect x="89.75" y="67" width="2.25" height="2.25"/><rect x="94.25" y="67" width="2.25" height="2.25"/><rect x="78.5" y="69.25" width="2.25" height="2.25"/><rect x="80.75" y="69.25" width="2.25" height="2.25"/><rect x="83" y="69.25" width="2.25" height="2.25"/><rect x="85.25" y="69.25" width="2.25" height="2.25"/><rect x="87.5" y="69.25" width="2.25" height="2.25"/><rect x="89.75" y="69.25" width="2.25" height="2.25"/><rect x="92" y="69.25" width="2.25" height="2.25"/><rect x="94.25" y="69.25" width="2.25" height="2.25"/><rect x="100" y="50" width="25" height="25"/><rect x="128.5" y="53.5" width="2.25" height="2.25"/><rect x="130.75" y="53.5" width="2.25" height="2.25"/><rect x="133" y="53.5" width="2.25" height="2.25"/><rect x="135.25" y="53.5" width="2.25" height="2.25"/><rect x="137.5" y="53.5" width="2.25" height="2.25"/><rect x="139.75" y="53.5" width="2.25" height="2.25"/><rect x="142" y="53.5" width="2.25" height="2.25"/><rect x="144.25" y="53.5" width="2.25" height="2.25"/><rect x="128.5" y="55.75" width="2.25" height="2.25"/><rect x="130.75" y="55.75" width="2.25" height="2.25"/><rect x="133" y="55.75" width="2.25" height="2.25"/><rect x="144.25" y="55.75" width="2.25" height="2.25"/><rect x="128.5" y="58" width="2.25" height="2.25"/><rect x="130.75" y="58" width="2.25" height="2.25"/><rect x="133" y="58" width="2.25" height="2.25"/><rect x="135.25" y="58" width="2.25" height="2.25"/><rect x="137.5" y="58" width="2.25" height="2.25"/><rect x="142" y="58" width="2.25" height="2.25"/><rect x="144.25" y="58" width="2.25" height="2.25"/><rect x="128.5" y="60.25" width="2.25" height="2.25"/><rect x="139.75" y="60.25" width="2.25" height="2.25"/><rect x="142" y="60.25" width="2.25" height="2.25"/><rect x="144.25" y="60.25" width="2.25" height="2.25"/><rect x="128.5" y="62.5" width="2.25" height="2.25"/><rect x="135.25" y="62.5" width="2.25" height="2.25"/><rect x="139.75" y="62.5" width="2.25" height="2.25"/><rect x="142" y="62.5" width="2.25" height="2.25"/><rect x="144.25" y="62.5" width="2.25" height="2.25"/><rect x="128.5" y="64.75" width="2.25" height="2.25"/><rect x="133" y="64.75" width="2.25" height="2.25"/><rect x="139.75" y="64.75" width="2.25" height="2.25"/><rect x="142" y="64.75" width="2.25" height="2.25"/><rect x="144.25" y="64.75" width="2.25" height="2.25"/><rect x="128.5" y="67" width="2.25" height="2.25"/><rect x="139.75" y="67" width="2.25" height="2.25"/><rect x="142" y="67" width="2.25" height="2.25"/><rect x="144.25" y="67" width="2.25" height="2.25"/><rect x="128.5" y="69.25" width="2.25" height="2.25"/><rect x="130.75" y="69.25" width="2.25" height="2.25"/><rect x="133" y="69.25" width="2.25" height="2.25"/><rect x="135.25" y="69.25" width="2.25" height="2.25"/><rect x="137.5" y="69.25" width="2.25" height="2.25"/><rect x="139.75" y="69.25" width="2.25" height="2.25"/><rect x="142" y="69.25" width="2.25" height="2.25"/><rect x="144.25" y="69.25" width="2.25" height="2.25"/><rect x="150" y="50" width="25" height="25"/><rect x="3.5" y="78.5" width="2.25" height="2.25"/><rect x="5.75" y="78.5" width="2.25" height="2.25"/><rect x="8" y="78.5" width="2.25" height="2.25"/><rect x="10.25" y="78.5" width="2.25" height="2.25"/><rect x="12.5" y="78.5" width="2.25" height="2.25"/><rect x="14.75" y="78.5" width="2.25" height="2.25"/><rect x="17" y="78.5" width="2.25" height="2.25"/><rect x="19.25" y="78.5" width="2.25" height="2.25"/><rect x="3.5" y="80.75" width="2.25" height="2.25"/><rect x="5.75" y="80.75" width="2.25" height="2.25"/><rect x="10.25" y="80.75" width="2.25" height="2.25"/><rect x="12.5" y="80.75" width="2.25" height="2.25"/><rect x="14.75" y="80.75" width="2.25" height="2.25"/><rect x="19.25" y="80.75" width="2.25" height="2.25"/><rect x="3.5" y="83" width="2.25" height="2.25"/><rect x="5.75" y="83" width="2.25" height="2.25"/><rect x="14.75" y="83" width="2.25" height="2.25"/><rect x="19.25" y="83" width="2.25" height="2.25"/><rect x="3.5" y="85.25" width="2.25" height="2.25"/><rect x="19.25" y="85.25" width="2.25" height="2.25"/><rect x="3.5" y="87.5" width="2.25" height="2.25"/><rect x="5.75" y="87.5" width="2.25" height="2.25"/><rect x="8" y="87.5" width="2.25" height="2.25"/><rect x="10.25" y="87.5" width="2.25" height="2.25"/><rect x="19.25" y="87.5" width="2.25" height="2.25"/><rect x="3.5" y="89.75" width="2.25" height="2.25"/><rect x="5.75" y="89.75" width="2.25" height="2.25"/><rect x="10.25" y="89.75" width="2.25" height="2.25"/><rect x="12.5" y="89.75" width="2.25" height="2.25"/><rect x="19.25" y="89.75" width="2.25" height="2.25"/><rect x="3.5" y="92" width="2.25" height="2.25"/><rect x="8" y="92" width="2.25" height="2.25"/><rect x="10.25" y="92" width="2.25" height="2.25"/><rect x="12.5" y="92" width="2.25" height="2.25"/><rect x="19.25" y="92" width="2.25" height="2.25"/><rect x="3.5" y="94.25" width="2.25" height="2.25"/><rect x="5.75" y="94.25" width="2.25" height="2.25"/><rect x="8" y="94.25" width="2.25" height="2.25"/><rect x="10.25" y="94.25" width="2.25" height="2.25"/><rect x="12.5" y="94.25" width="2.25" height="2.25"/><rect x="14.75" y="94.25" width="2.25" height="2.25"/><rect x="17" y="94.25" width="2.25" height="2.25"/><rect x="19.25" y="94.25" width="2.25" height="2.25"/><rect x="25" y="75" width="25" height="25"/><rect x="53.5" y="78.5" width="2.25" height="2.25"/><rect x="55.75" y="78.5" width="2.25" height="2.25"/><rect x="58" y="78.5" width="2.25" height="2.25"/><rect x="60.25" y="78.5" width="2.25" height="2.25"/><rect x="62.5" y="78.5" width="2.25" height="2.25"/><rect x="64.75" y="78.5" width="2.25" height="2.25"/><rect x="67" y="78.5" width="2.25" height="2.25"/><rect x="69.25" y="78.5" width="2.25" height="2.25"/><rect x="53.5" y="80.75" width="2.25" height="2.25"/><rect x="55.75" y="80.75" width="2.25" height="2.25"/><rect x="60.25" y="80.75" width="2.25" height="2.25"/><rect x="62.5" y="80.75" width="2.25" height="2.25"/><rect x="67" y="80.75" width="2.25" height="2.25"/><rect x="69.25" y="80.75" width="2.25" height="2.25"/><rect x="53.5" y="83" width="2.25" height="2.25"/><rect x="55.75" y="83" width="2.25" height="2.25"/><rect x="58" y="83" width="2.25" height="2.25"/><rect x="64.75" y="83" width="2.25" height="2.25"/><rect x="69.25" y="83" width="2.25" height="2.25"/><rect x="53.5" y="85.25" width="2.25" height="2.25"/><rect x="58" y="85.25" width="2.25" height="2.25"/><rect x="60.25" y="85.25" width="2.25" height="2.25"/><rect x="62.5" y="85.25" width="2.25" height="2.25"/><rect x="64.75" y="85.25" width="2.25" height="2.25"/><rect x="69.25" y="85.25" width="2.25" height="2.25"/><rect x="53.5" y="87.5" width="2.25" height="2.25"/><rect x="55.75" y="87.5" width="2.25" height="2.25"/><rect x="62.5" y="87.5" width="2.25" height="2.25"/><rect x="69.25" y="87.5" width="2.25" height="2.25"/><rect x="53.5" y="89.75" width="2.25" height="2.25"/><rect x="55.75" y="89.75" width="2.25" height="2.25"/><rect x="58" y="89.75" width="2.25" height="2.25"/><rect x="62.5" y="89.75" width="2.25" height="2.25"/><rect x="64.75" y="89.75" width="2.25" height="2.25"/><rect x="69.25" y="89.75" width="2.25" height="2.25"/><rect x="53.5" y="92" width="2.25" height="2.25"/><rect x="55.75" y="92" width="2.25" height="2.25"/><rect x="60.25" y="92" width="2.25" height="2.25"/><rect x="69.25" y="92" width="2.25" height="2.25"/><rect x="53.5" y="94.25" width="2.25" height="2.25"/><rect x="55.75" y="94.25" width="2.25" height="2.25"/><rect x="58" y="94.25" width="2.25" height="2.25"/><rect x="60.25" y="94.25" width="2.25" height="2.25"/><rect x="62.5" y="94.25" width="2.25" height="2.25"/><rect x="64.75" y="94.25" width="2.25" height="2.25"/><rect x="67" y="94.25" width="2.25" height="2.25"/><rect x="69.25" y="94.25" width="2.25" height="2.25"/><rect x="75" y="75" width="25" height="25"/><rect x="103.5" y="78.5" width="2.25" height="2.25"/><rect x="105.75" y="78.5" width="2.25" height="2.25"/><rect x="108" y="78.5" width="2.25" height="2.25"/><rect x="110.25" y="78.5" width="2.25" height="2.25"/><rect x="112.5" y="78.5" width="2.25" height="2.25"/><rect x="114.75" y="78.5" width="2.25" height="2.25"/><rect x="117" y="78.5" width="2.25" height="2.25"/><rect x="119.25" y="78.5" width="2.25" height="2.25"/><rect x="103.5" y="80.75" width="2.25" height="2.25"/><rect x="105.75" y="80.75" width="2.25" height="2.25"/><rect x="114.75" y="80.75" width="2.25" height="2.25"/><rect x="117" y="80.75" width="2.25" height="2.25"/><rect x="119.25" y="80.75" width="2.25" height="2.25"/><rect x="103.5" y="83" width="2.25" height="2.25"/><rect x="105.75" y="83" width="2.25" height="2.25"/><rect x="110.25" y="83" width="2.25" height="2.25"/><rect x="112.5" y="83" width="2.25" height="2.25"/><rect x="114.75" y="83" width="2.25" height="2.25"/><rect x="117" y="83" width="2.25" height="2.25"/><rect x="119.25" y="83" width="2.25" height="2.25"/><rect x="103.5" y="85.25" width="2.25" height="2.25"/><rect x="105.75" y="85.25" width="2.25" height="2.25"/><rect x="110.25" y="85.25" width="2.25" height="2.25"/><rect x="114.75" y="85.25" width="2.25" height="2.25"/><rect x="119.25" y="85.25" width="2.25" height="2.25"/><rect x="103.5" y="87.5" width="2.25" height="2.25"/><rect x="105.75" y="87.5" width="2.25" height="2.25"/><rect x="112.5" y="87.5" width="2.25" height="2.25"/><rect x="114.75" y="87.5" width="2.25" height="2.25"/><rect x="117" y="87.5" width="2.25" height="2.25"/><rect x="119.25" y="87.5" width="2.25" height="2.25"/><rect x="103.5" y="89.75" width="2.25" height="2.25"/><rect x="119.25" y="89.75" width="2.25" height="2.25"/><rect x="103.5" y="92" width="2.25" height="2.25"/><rect x="105.75" y="92" width="2.25" height="2.25"/><rect x="108" y="92" width="2.25" height="2.25"/><rect x="110.25" y="92" width="2.25" height="2.25"/><rect x="117" y="92" width="2.25" height="2.25"/><rect x="119.25" y="92" width="2.25" height="2.25"/><rect x="103.5" y="94.25" width="2.25" height="2.25"/><rect x="105.75" y="94.25" width="2.25" height="2.25"/><rect x="108" y="94.25" width="2.25" height="2.25"/><rect x="110.25" y="94.25" width="2.25" height="2.25"/><rect x="112.5" y="94.25" width="2.25" height="2.25"/><rect x="114.75" y="94.25" width="2.25" height="2.25"/><rect x="117" y="94.25" width="2.25" height="2.25"/><rect x="119.25" y="94.25" width="2.25" height="2.25"/><rect x="125" y="75" width="25" height="25"/><rect x="153.5" y="78.5" width="2.25" height="2.25"/><rect x="155.75" y="78.5" width="2.25" height="2.25"/><rect x="158" y="78.5" width="2.25" height="2.25"/><rect x="160.25" y="78.5" width="2.25" height="2.25"/><rect x="162.5" y="78.5" width="2.25" height="2.25"/><rect x="164.75" y="78.5" width="2.25" height="2.25"/><rect x="167" y="78.5" width="2.25" height="2.25"/><rect x="169.25" y="78.5" width="2.25" height="2.25"/><rect x="153.5" y="80.75" width="2.25" height="2.25"/><rect x="158" y="80.75" width="2.25" height="2.25"/><rect x="160.25" y="80.75" width="2.25" height="2.25"/><rect x="162.5" y="80.75" width="2.25" height="2.25"/><rect x="164.75" y="80.75" width="2.25" height="2.25"/><rect x="169.25" y="80.75" width="2.25" height="2.25"/><rect x="153.5" y="83" width="2.25" height="2.25"/><rect x="158" y="83" width="2.25" height="2.25"/><rect x="164.75" y="83" width="2.25" height="2.25"/><rect x="169.25" y="83" width="2.25" height="2.25"/><rect x="153.5" y="85.25" width="2.25" height="2.25"/><rect x="160.25" y="85.25" width="2.25" height="2.25"/><rect x="162.5" y="85.25" width="2.25" height="2.25"/><rect x="169.25" y="85.25" width="2.25" height="2.25"/><rect x="153.5" y="87.5" width="2.25" height="2.25"/><rect x="162.5" y="87.5" width="2.25" height="2.25"/><rect x="167" y="87.5" width="2.25" height="2.25"/><rect x="169.25" y="87.5" width="2.25" height="2.25"/><rect x="153.5" y="89.75" width="2.25" height="2.25"/><rect x="160.25" y="89.75" width="2.25" height="2.25"/><rect x="164.75" y="89.75" width="2.25" height="2.25"/><rect x="167" y="89.75" width="2.25" height="2.25"/><rect x="169.25" y="89.75" width="2.25" height="2.25"/><rect x="153.5" y="92" width="2.25" height="2.25"/><rect x="155.75" y="92" width="2.25" height="2.25"/><rect x="158" y="92" width="2.25" height="2.25"/><rect x="160.25" y="92" width="2.25" height="2.25"/><rect x="169.25" y="92" width="2.25" height="2.25"/><rect x="153.5" y="94.25" width="2.25" height="2.25"/><rect x="155.75" y="94.25" width="2.25" height="2.25"/><rect x="158" y="94.25" width="2.25" height="2.25"/><rect x="160.25" y="94.25" width="2.25" height="2.25"/><rect x="162.5" y="94.25" width="2.25" height="2.25"/><rect x="164.75" y="94.25" width="2.25" height="2.25"/><rect x="167" y="94.25" width="2.25" height="2.25"/><rect x="169.25" y="94.25" width="2.25" height="2.25"/><rect x="0" y="100" width="25" height="25"/><rect x="28.5" y="103.5" width="2.25" height="2.25"/><rect x="30.75" y="103.5" width="2.25" height="2.25"/><rect x="33" y="103.5" width="2.25" height="2.25"/><rect x="35.25" y="103.5" width="2.25" height="2.25"/><rect x="37.5" y="103.5" width="2.25" height="2.25"/><rect x="39.75" y="103.5" width="2.25" height="2.25"/><rect x="42" y="103.5" width="2.25" height="2.25"/><rect x="44.25" y="103.5" width="2.25" height="2.25"/><rect x="28.5" y="105.75" width="2.25" height="2.25"/><rect x="33" y="105.75" width="2.25" height="2.25"/><rect x="35.25" y="105.75" width="2.25" height="2.25"/><rect x="37.5" y="105.75" width="2.25" height="2.25"/><rect x="44.25" y="105.75" width="2.25" height="2.25"/><rect x="28.5" y="108" width="2.25" height="2.25"/><rect x="30.75" y="108" width="2.25" height="2.25"/><rect x="35.25" y="108" width="2.25" height="2.25"/><rect x="44.25" y="108" width="2.25" height="2.25"/><rect x="28.5" y="110.25" width="2.25" height="2.25"/><rect x="30.75" y="110.25" width="2.25" height="2.25"/><rect x="33" y="110.25" width="2.25" height="2.25"/><rect x="37.5" y="110.25" width="2.25" height="2.25"/><rect x="42" y="110.25" width="2.25" height="2.25"/><rect x="44.25" y="110.25" width="2.25" height="2.25"/><rect x="28.5" y="112.5" width="2.25" height="2.25"/><rect x="33" y="112.5" width="2.25" height="2.25"/><rect x="37.5" y="112.5" width="2.25" height="2.25"/><rect x="39.75" y="112.5" width="2.25" height="2.25"/><rect x="44.25" y="112.5" width="2.25" height="2.25"/><rect x="28.5" y="114.75" width="2.25" height="2.25"/><rect x="30.75" y="114.75" width="2.25" height="2.25"/><rect x="33" y="114.75" width="2.25" height="2.25"/><rect x="44.25" y="114.75" width="2.25" height="2.25"/><rect x="28.5" y="117" width="2.25" height="2.25"/><rect x="35.25" y="117" width="2.25" height="2.25"/><rect x="42" y="117" width="2.25" height="2.25"/><rect x="44.25" y="117" width="2.25" height="2.25"/><rect x="28.5" y="119.25" width="2.25" height="2.25"/><rect x="30.75" y="119.25" width="2.25" height="2.25"/><rect x="33" y="119.25" width="2.25" height="2.25"/><rect x="35.25" y="119.25" width="2.25" height="2.25"/><rect x="37.5" y="119.25" width="2.25" height="2.25"/><rect x="39.75" y="119.25" width="2.25" height="2.25"/><rect x="42" y="119.25" width="2.25" height="2.25"/><rect x="44.25" y="119.25" width="2.25" height="2.25"/><rect x="50" y="100" width="25" height="25"/><rect x="78.5" y="103.5" width="2.25" height="2.25"/><rect x="80.75" y="103.5" width="2.25" height="2.25"/><rect x="83" y="103.5" width="2.25" height="2.25"/><rect x="85.25" y="103.5" width="2.25" height="2.25"/><rect x="87.5" y="103.5" width="2.25" height="2.25"/><rect x="89.75" y="103.5" width="2.25" height="2.25"/><rect x="92" y="103.5" width="2.25" height="2.25"/><rect x="94.25" y="103.5" width="2.25" height="2.25"/><rect x="78.5" y="105.75" width="2.25" height="2.25"/><rect x="83" y="105.75" width="2.25" height="2.25"/><rect x="87.5" y="105.75" width="2.25" height="2.25"/><rect x="89.75" y="105.75" width="2.25" height="2.25"/><rect x="92" y="105.75" width="2.25" height="2.25"/><rect x="94.25" y="105.75" width="2.25" height="2.25"/><rect x="78.5" y="108" width="2.25" height="2.25"/><rect x="83" y="108" width="2.25" height="2.25"/><rect x="87.5" y="108" width="2.25" height="2.25"/><rect x="94.25" y="108" width="2.25" height="2.25"/><rect x="78.5" y="110.25" width="2.25" height="2.25"/><rect x="83" y="110.25" width="2.25" height="2.25"/><rect x="85.25" y="110.25" width="2.25" height="2.25"/><rect x="87.5" y="110.25" width="2.25" height="2.25"/><rect x="92" y="110.25" width="2.25" height="2.25"/><rect x="94.25" y="110.25" width="2.25" height="2.25"/><rect x="78.5" y="112.5" width="2.25" height="2.25"/><rect x="80.75" y="112.5" width="2.25" height="2.25"/><rect x="89.75" y="112.5" width="2.25" height="2.25"/><rect x="94.25" y="112.5" width="2.25" height="2.25"/><rect x="78.5" y="114.75" width="2.25" height="2.25"/><rect x="85.25" y="114.75" width="2.25" height="2.25"/><rect x="87.5" y="114.75" width="2.25" height="2.25"/><rect x="94.25" y="114.75" width="2.25" height="2.25"/><rect x="78.5" y="117" width="2.25" height="2.25"/><rect x="80.75" y="117" width="2.25" height="2.25"/><rect x="92" y="117" width="2.25" height="2.25"/><rect x="94.25" y="117" width="2.25" height="2.25"/><rect x="78.5" y="119.25" width="2.25" height="2.25"/><rect x="80.75" y="119.25" width="2.25" height="2.25"/><rect x="83" y="119.25" width="2.25" height="2.25"/><rect x="85.25" y="119.25" width="2.25" height="2.25"/><rect x="87.5" y="119.25" width="2.25" height="2.25"/><rect x="89.75" y="119.25" width="2.25" height="2.25"/><rect x="92" y="119.25" width="2.25" height="2.25"/><rect x="94.25" y="119.25" width="2.25" height="2.25"/><rect x="100" y="100" width="25" height="25"/><rect x="128.5" y="103.5" width="2.25" height="2.25"/><rect x="130.75" y="103.5" width="2.25" height="2.25"/><rect x="133" y="103.5" width="2.25" height="2.25"/><rect x="135.25" y="103.5" width="2.25" height="2.25"/><rect x="137.5" y="103.5" width="2.25" height="2.25"/><rect x="139.75" y="103.5" width="2.25" height="2.25"/><rect x="142" y="103.5" width="2.25" height="2.25"/><rect x="144.25" y="103.5" width="2.25" height="2.25"/><rect x="128.5" y="105.75" width="2.25" height="2.25"/><rect x="130.75" y="105.75" width="2.25" height="2.25"/><rect x="133" y="105.75" width="2.25" height="2.25"/><rect x="135.25" y="105.75" width="2.25" height="2.25"/><rect x="137.5" y="105.75" width="2.25" height="2.25"/><rect x="142" y="105.75" width="2.25" height="2.25"/><rect x="144.25" y="105.75" width="2.25" height="2.25"/><rect x="128.5" y="108" width="2.25" height="2.25"/><rect x="130.75" y="108" width="2.25" height="2.25"/><rect x="144.25" y="108" width="2.25" height="2.25"/><rect x="128.5" y="110.25" width="2.25" height="2.25"/><rect x="135.25" y="110.25" width="2.25" height="2.25"/><rect x="139.75" y="110.25" width="2.25" height="2.25"/><rect x="142" y="110.25" width="2.25" height="2.25"/><rect x="144.25" y="110.25" width="2.25" height="2.25"/><rect x="128.5" y="112.5" width="2.25" height="2.25"/><rect x="130.75" y="112.5" width="2.25" height="2.25"/><rect x="142" y="112.5" width="2.25" height="2.25"/><rect x="144.25" y="112.5" width="2.25" height="2.25"/><rect x="128.5" y="114.75" width="2.25" height="2.25"/><rect x="133" y="114.75" width="2.25" height="2.25"/><rect x="135.25" y="114.75" width="2.25" height="2.25"/><rect x="144.25" y="114.75" width="2.25" height="2.25"/><rect x="128.5" y="117" width="2.25" height="2.25"/><rect x="130.75" y="117" width="2.25" height="2.25"/><rect x="133" y="117" width="2.25" height="2.25"/><rect x="135.25" y="117" width="2.25" height="2.25"/><rect x="139.75" y="117" width="2.25" height="2.25"/><rect x="142" y="117" width="2.25" height="2.25"/><rect x="144.25" y="117" width="2.25" height="2.25"/><rect x="128.5" y="119.25" width="2.25" height="2.25"/><rect x="130.75" y="119.25" width="2.25" height="2.25"/><rect x="133" y="119.25" width="2.25" height="2.25"/><rect x="135.25" y="119.25" width="2.25" height="2.25"/><rect x="137.5" y="119.25" width="2.25" height="2.25"/><rect x="139.75" y="119.25" width="2.25" height="2.25"/><rect x="142" y="119.25" width="2.25" height="2.25"/><rect x="144.25" y="119.25" width="2.25" height="2.25"/><rect x="150" y="100" width="25" height="25"/></g><g stroke="#000" stroke-width="0.3" fill="none"><line x1="70.5" y1="12" x2="120.5" y2="12"/><line x1="70.5" y1="10.4" x2="70.5" y2="13.6"/><line x1="120.5" y1="10.4" x2="120.5" y2="13.6"/></g><text x="95.5" y="16.2" font-family="sans-serif" font-size="3" text-anchor="middle" fill="#444">50 mm — verify print scale at 100%</text><text x="95.5" y="161" font-family="sans-serif" font-size="3.2" text-anchor="middle" fill="#444">calibrx.io · 7×5 squares · 25/18 mm · DICT_6X6_250</text></svg>